<svg width="256" height="256" viewBox="0 0 256 256" fill="currentColor" xmlns="http://www.w3.org/2000/svg">
<g id="NUTRA PLUS Favicon Transparent">
<g id="Group 3117">
<g id="Group">
<g id="Group_2" opacity="0.4">
<path id="Vector" d="M49.9297 106.557V148.793C49.9297 152.473 52.8257 155.455 56.4195 155.455H90.0635C95.3013 155.455 100.147 152.559 102.728 147.866C112.553 130.002 126.842 115.092 144.037 104.722C149.256 101.577 152.525 95.871 152.525 89.6488V56.5401C152.525 52.8699 149.61 49.8687 146.035 49.8687H105.012C101.428 49.8687 98.5223 52.8699 98.5223 56.5401V99.8854H56.41C52.8258 99.8758 49.9297 102.867 49.9297 106.557Z" fill="#4B4B4B"/>
</g>
<g id="Group_3">
<path id="Vector_2" d="M48.8408 106.557V148.793C48.8408 152.473 51.7369 155.455 55.3307 155.455H88.9746C94.2124 155.455 99.0583 152.559 101.639 147.866C111.464 130.002 125.754 115.092 142.948 104.722C148.167 101.577 151.436 95.871 151.436 89.6488V56.5401C151.436 52.8699 148.521 49.8687 144.946 49.8687H103.923C100.339 49.8687 97.4334 52.8699 97.4334 56.5401V99.8854H55.3211C51.7464 99.8758 48.8408 102.867 48.8408 106.557Z" fill="#4B4B4B"/>
</g>
</g>
<path id="Vector_3" d="M151.79 162.384V197.271C151.79 202.136 147.842 206.083 142.977 206.083H105.309C100.445 206.083 96.4971 202.136 96.4971 197.271V175.88C96.4971 161.429 111.704 141.433 119.102 133.051C137.309 112.416 155.536 101.022 191.341 101.022H205.085C193.08 123.694 162.542 136.177 142.786 136.922C165.047 137.199 194.81 125.653 207.245 102.772C206.471 134.905 184.277 154.021 151.799 156.325C132.378 157.701 113.472 157.147 106.858 166.944C103.513 171.895 103.838 176.349 103.838 182.408L103.847 197.271C103.847 198.083 104.507 198.743 105.319 198.743H142.987C143.799 198.743 144.459 198.083 144.459 197.271C144.459 197.271 144.459 179.063 144.459 172.611C144.449 163.197 151.79 162.384 151.79 162.384Z" fill="#4B4B4B"/>
</g>
</g>
</svg>
