<svg width="36" height="36" viewBox="0 0 36 36" fill="currentColor"
    xmlns="http://www.w3.org/2000/svg">
    <g id="Instagram">
        <path id="Vector" d="M17.999 9.75378C13.4387 9.75378 9.75834 13.4341 9.75834 17.9944C9.75834 22.5547 13.4387 26.235 17.999 26.235C22.5592 26.235 26.2396 22.5547 26.2396 17.9944C26.2396 13.4341 22.5592 9.75378 17.999 9.75378ZM17.999 23.3502C15.0499 23.3502 12.6432 20.9435 12.6432 17.9944C12.6432 15.0453 15.0499 12.6386 17.999 12.6386C20.9481 12.6386 23.3548 15.0453 23.3548 17.9944C23.3548 20.9435 20.9481 23.3502 17.999 23.3502ZM26.5771 7.49575C25.5124 7.49575 24.6525 8.35557 24.6525 9.4203C24.6525 10.485 25.5124 11.3449 26.5771 11.3449C27.6418 11.3449 28.5016 10.4891 28.5016 9.4203C28.502 9.16748 28.4524 8.91707 28.3558 8.68343C28.2592 8.44979 28.1174 8.2375 27.9387 8.05873C27.7599 7.87995 27.5476 7.7382 27.314 7.6416C27.0803 7.54499 26.8299 7.49543 26.5771 7.49575ZM34.0624 17.9944C34.0624 15.7766 34.0825 13.5788 33.9579 11.3649C33.8333 8.79351 33.2467 6.51137 31.3664 4.63101C29.482 2.74664 27.2039 2.16405 24.6325 2.0395C22.4146 1.91494 20.2168 1.93503 18.003 1.93503C15.7851 1.93503 13.5874 1.91494 11.3735 2.0395C8.80209 2.16405 6.51995 2.75066 4.63959 4.63101C2.75522 6.51539 2.17263 8.79351 2.04807 11.3649C1.92352 13.5828 1.94361 15.7806 1.94361 17.9944C1.94361 20.2082 1.92352 22.41 2.04807 24.6239C2.17263 27.1953 2.75923 29.4774 4.63959 31.3578C6.52397 33.2422 8.80209 33.8248 11.3735 33.9493C13.5914 34.0739 15.7891 34.0538 18.003 34.0538C20.2208 34.0538 22.4186 34.0739 24.6325 33.9493C27.2039 33.8248 29.486 33.2382 31.3664 31.3578C33.2508 29.4734 33.8333 27.1953 33.9579 24.6239C34.0865 22.41 34.0624 20.2123 34.0624 17.9944ZM30.5266 27.4685C30.2333 28.1998 29.8798 28.7462 29.3133 29.3087C28.7467 29.8752 28.2043 30.2288 27.4731 30.5221C25.3597 31.3618 20.3414 31.173 17.999 31.173C15.6566 31.173 10.6342 31.3618 8.52084 30.5261C7.78959 30.2328 7.24316 29.8792 6.68066 29.3127C6.11414 28.7462 5.76057 28.2038 5.46727 27.4725C4.63156 25.3551 4.82039 20.3368 4.82039 17.9944C4.82039 15.652 4.63156 10.6297 5.46727 8.51628C5.76057 7.78503 6.11414 7.2386 6.68066 6.6761C7.24718 6.1136 7.78959 5.75602 8.52084 5.46271C10.6342 4.627 15.6566 4.81584 17.999 4.81584C20.3414 4.81584 25.3637 4.627 27.4771 5.46271C28.2083 5.75602 28.7548 6.10959 29.3173 6.6761C29.8838 7.24262 30.2374 7.78503 30.5307 8.51628C31.3664 10.6297 31.1775 15.652 31.1775 17.9944C31.1775 20.3368 31.3664 25.3551 30.5266 27.4685Z" fill-opacity="0.85"/>
    </g>
</svg>
