<svg width="36" height="36" viewBox="0 0 36 36" fill="currentColor"
    xmlns="http://www.w3.org/2000/svg">
    <g id="Linkedin">
        <path id="Vector" d="M31.4886 1.9248H4.51268C3.08634 1.9248 1.9292 3.08195 1.9292 4.50829V31.4842C1.9292 32.9105 3.08634 34.0677 4.51268 34.0677H31.4886C32.9149 34.0677 34.0721 32.9105 34.0721 31.4842V4.50829C34.0721 3.08195 32.9149 1.9248 31.4886 1.9248ZM31.4886 31.4962C13.4966 31.4922 4.50063 31.4882 4.50063 31.4842C4.50465 13.4922 4.50866 4.49623 4.51268 4.49623C22.5046 4.50025 31.5006 4.50427 31.5006 4.50829C31.4966 22.5003 31.4926 31.4962 31.4886 31.4962ZM6.69438 13.9744H11.4636V29.3145H6.69438V13.9744ZM9.08099 11.877C10.6038 11.877 11.8453 10.6395 11.8453 9.11275C11.8453 8.74974 11.7738 8.39028 11.6349 8.05491C11.4959 7.71953 11.2923 7.41479 11.0356 7.15811C10.7789 6.90142 10.4742 6.6978 10.1388 6.55888C9.80345 6.41997 9.444 6.34847 9.08099 6.34847C8.71797 6.34847 8.35852 6.41997 8.02314 6.55888C7.68776 6.6978 7.38303 6.90142 7.12634 7.15811C6.86965 7.41479 6.66604 7.71953 6.52712 8.05491C6.3882 8.39028 6.3167 8.74974 6.3167 9.11275C6.31268 10.6395 7.55018 11.877 9.08099 11.877ZM19.218 21.7248C19.218 19.7239 19.5997 17.7873 22.0788 17.7873C24.5216 17.7873 24.5578 20.0735 24.5578 21.8534V29.3145H29.323V20.9011C29.323 16.7708 28.431 13.5927 23.6055 13.5927C21.2872 13.5927 19.7323 14.8663 19.0935 16.0717H19.0292V13.9744H14.4529V29.3145H19.218V21.7248Z" fill-opacity="0.85"/>
    </g>
</svg>
