<svg width="36" height="36" viewBox="0 0 36 36" fill="currentColor"
    xmlns="http://www.w3.org/2000/svg">
    <g id="Skype">
        <path id="Vector" d="M32.9339 20.6759C33.0987 19.7719 33.1871 18.8478 33.1871 17.9237C33.1871 15.8746 32.7853 13.8857 31.9938 12.0174C31.2304 10.2094 30.1335 8.58616 28.7393 7.19196C27.3568 5.80589 25.7179 4.70192 23.9139 3.94152C22.0415 3.15 20.0567 2.74821 18.0076 2.74821C17.0433 2.74821 16.075 2.84062 15.1348 3.02143C13.8339 2.33206 12.3844 1.9707 10.9121 1.96875C8.51341 1.96875 6.25537 2.90491 4.55984 4.60045C3.72317 5.43282 3.0598 6.42279 2.60808 7.51311C2.15637 8.60344 1.92527 9.77249 1.92814 10.9527C1.92814 12.4795 2.32189 13.9821 3.05716 15.308C2.9085 16.1679 2.82814 17.0478 2.82814 17.9237C2.82814 19.9728 3.22993 21.9616 4.02145 23.8299C4.78484 25.6379 5.8777 27.2612 7.27189 28.6554C8.66609 30.0496 10.2893 31.1424 12.0973 31.9058C13.9697 32.6973 15.9545 33.0991 18.0036 33.0991C18.8956 33.0991 19.7875 33.0188 20.6634 32.8621C22.0094 33.6214 23.5281 34.0272 25.0831 34.0272C27.4817 34.0272 29.7397 33.0951 31.4353 31.3955C33.1348 29.7 34.067 27.442 34.067 25.0433C34.071 23.5165 33.6772 22.0098 32.9339 20.6759ZM29.3942 29.3545C28.2411 30.5116 26.7183 31.1384 25.0871 31.1384C24.0384 31.1384 23.0058 30.8652 22.0897 30.3469L21.1857 29.8366L20.1612 30.0174C19.446 30.146 18.7228 30.2103 18.0076 30.2103C16.3442 30.2103 14.7411 29.8848 13.2223 29.242C11.7639 28.6272 10.45 27.7433 9.31698 26.6103C8.19538 25.4925 7.3016 24.1675 6.68528 22.7089C6.04243 21.1942 5.721 19.5911 5.721 17.9277C5.721 17.2286 5.78528 16.5134 5.90582 15.8063L6.08261 14.7978L5.58439 13.9018C5.08189 13 4.81775 11.985 4.81698 10.9527C4.81698 9.32143 5.44779 7.79866 6.60091 6.64554C7.75805 5.49241 9.28082 4.86161 10.9121 4.86161C11.9126 4.86431 12.8973 5.11119 13.7808 5.5808L14.6808 6.05491L15.6772 5.86205C16.4366 5.71741 17.2201 5.64107 18.0076 5.64107C19.671 5.64107 21.2741 5.96652 22.7889 6.60536C24.2554 7.22411 25.5652 8.10804 26.6942 9.23705C27.8273 10.3661 28.7112 11.6799 29.3299 13.1424C29.9728 14.6571 30.2942 16.2603 30.2942 17.9237C30.2942 18.6629 30.2259 19.4103 30.0893 20.1536L29.9005 21.1781L30.4067 22.0862C30.913 22.9902 31.1781 24.0147 31.1781 25.0473C31.1781 26.6826 30.5473 28.2013 29.3942 29.3545ZM20.8683 16.1598L17.3165 15.3723C15.9665 15.0629 14.4116 14.6571 14.4116 13.3835C14.4116 12.1098 15.5005 11.2179 17.4692 11.2179C21.4348 11.2179 21.0732 13.942 23.042 13.942C24.0786 13.942 24.9866 13.3313 24.9866 12.2866C24.9866 9.84375 21.0732 8.00759 17.7545 8.00759C14.1505 8.00759 10.3134 9.53839 10.3134 13.6125C10.3134 15.5732 11.0125 17.6625 14.8777 18.6308L19.675 19.8281C21.1255 20.1857 21.4911 21.0013 21.4911 21.7406C21.4911 22.9661 20.2737 24.1634 18.0679 24.1634C13.7607 24.1634 14.3594 20.8487 12.0531 20.8487C11.0165 20.8487 10.2652 21.5638 10.2652 22.5804C10.2652 24.5652 12.6759 27.217 18.0679 27.217C23.1987 27.217 25.742 24.746 25.742 21.4313C25.742 19.2978 24.7576 17.0277 20.8683 16.1598Z" fill-opacity="0.85"/>
    </g>
</svg>
