<svg width="36" height="36" viewBox="0 0 36 36" fill="currentColor"
    xmlns="http://www.w3.org/2000/svg">
    <g id="Twitter">
        <path id="Vector" d="M34.7136 7.64725C33.4841 8.17761 32.1462 8.55931 30.7681 8.70797C32.1989 7.85793 33.2704 6.51502 33.7815 4.93118C32.4388 5.72989 30.968 6.28996 29.4341 6.58654C28.7931 5.9012 28.0177 5.35523 27.1564 4.98264C26.2951 4.61006 25.3663 4.41884 24.4279 4.42092C20.631 4.42092 17.5775 7.49859 17.5775 11.2754C17.5775 11.8057 17.6417 12.3361 17.7462 12.8464C12.0609 12.549 6.9904 9.83297 3.61941 5.67449C3.00519 6.72361 2.68331 7.91816 2.68727 9.13386C2.68727 11.5124 3.89665 13.6098 5.74084 14.8432C4.65403 14.8004 3.59267 14.5017 2.64307 13.9714V14.0557C2.64307 17.3865 4.99754 20.1468 8.13549 20.7816C7.5463 20.9347 6.9402 21.013 6.33147 21.0147C5.88549 21.0147 5.46361 20.9705 5.03772 20.9102C5.90557 23.6263 8.43281 25.599 11.4422 25.6633C9.08772 27.5075 6.13861 28.5923 2.93638 28.5923C2.36182 28.5923 1.83147 28.5723 1.28102 28.508C4.31852 30.4566 7.92254 31.5816 11.8038 31.5816C24.4038 31.5816 31.2984 21.1432 31.2984 12.083C31.2984 11.7856 31.2984 11.4883 31.2783 11.191C32.6123 10.2147 33.7815 9.00529 34.7136 7.64725Z" fill-opacity="0.85"/>
    </g>
</svg>
