<svg width="36" height="36" viewBox="0 0 36 36" fill="currentColor"
    xmlns="http://www.w3.org/2000/svg">
    <g id="Yahoo" clip-path="url(#clip0_806_8350)">
        <path id="Vector" d="M31.9775 24.811H31.411C30.3221 24.811 29.4342 25.703 29.4342 26.7918V27.3584C29.4342 28.4472 30.3262 29.3392 31.411 29.3392H31.9775C33.0663 29.3392 33.9543 28.4472 33.9543 27.3584V26.7918C33.9543 25.703 33.0623 24.811 31.9775 24.811ZM13.6038 6.7146C6.11455 6.7146 0.0395508 11.7771 0.0395508 18.0249C0.0395508 24.2726 6.11455 29.3351 13.6038 29.3351C21.0931 29.3351 27.1681 24.2726 27.1681 18.0249C27.1681 11.7771 21.0971 6.7146 13.6038 6.7146ZM13.6038 27.0851C7.27571 27.0851 2.28955 22.9307 2.28955 18.0249C2.28955 15.5217 3.58732 13.2155 5.70071 11.5561V13.5008H7.18732L13.6079 19.9253V22.549H10.2168V24.811H19.261V22.549H15.8699V19.9253L20.0284 15.7628H22.6521V13.5008H15.8699V16.1244L14.7409 17.2534L10.9882 13.4967H12.4748V11.2347H6.12259C8.10741 9.82844 10.715 8.96058 13.6038 8.96058C19.936 8.96058 24.9181 13.115 24.9181 18.0209C24.9181 22.9267 19.936 27.0851 13.6038 27.0851ZM35.0873 6.7146H30.5632C29.9404 6.7146 29.4503 7.22085 29.4744 7.84362L30.0007 22.549H33.3918L36.0195 7.82755C36.1279 7.21683 35.7061 6.7146 35.0873 6.7146Z" fill-opacity="0.85"/>
    </g>
    <defs>
        <clipPath id="clip0_806_8350">
            <rect width="36" height="36" fill="white"/>
        </clipPath>
    </defs>
</svg>
