<svg width="36" height="36" viewBox="0 0 36 36" fill="currentColor"
    xmlns="http://www.w3.org/2000/svg">
    <g id="Youtube" clip-path="url(#clip0_806_8221)">
        <path id="Vector" d="M36 17.8898C36 17.8014 36 17.7009 35.996 17.5844C35.992 17.259 35.9839 16.8933 35.9759 16.5036C35.9438 15.3826 35.8875 14.2657 35.7991 13.213C35.6786 11.7625 35.5018 10.5532 35.2607 9.64512C35.0063 8.6975 34.5077 7.83326 33.8146 7.13876C33.1215 6.44427 32.2583 5.94385 31.3112 5.68753C30.1741 5.38217 27.9482 5.19333 24.8143 5.07681C23.3237 5.02056 21.7286 4.9844 20.1335 4.96431C19.575 4.95628 19.0567 4.95226 18.5906 4.94824H17.4094C16.9433 4.95226 16.425 4.95628 15.8665 4.96431C14.2714 4.9844 12.6763 5.02056 11.1857 5.07681C8.05179 5.19735 5.82187 5.38619 4.68884 5.68753C3.74143 5.94322 2.87787 6.44343 2.18469 7.13802C1.4915 7.83261 0.993054 8.69719 0.739286 9.64512C0.494196 10.5532 0.321429 11.7625 0.200893 13.213C0.1125 14.2657 0.0562499 15.3826 0.0241071 16.5036C0.0120535 16.8933 0.00803565 17.259 0.0040178 17.5844C0.0040178 17.7009 0 17.8014 0 17.8898V18.1148C0 18.2032 -6.13675e-08 18.3036 0.0040178 18.4201C0.00803565 18.7456 0.0160714 19.1112 0.0241071 19.5009C0.0562499 20.6219 0.1125 21.7389 0.200893 22.7915C0.321429 24.242 0.498214 25.4514 0.739286 26.3594C1.25357 28.284 2.76429 29.8027 4.68884 30.317C5.82187 30.6224 8.05179 30.8112 11.1857 30.9277C12.6763 30.984 14.2714 31.0201 15.8665 31.0402C16.425 31.0482 16.9433 31.0523 17.4094 31.0563H18.5906C19.0567 31.0523 19.575 31.0482 20.1335 31.0402C21.7286 31.0201 23.3237 30.984 24.8143 30.9277C27.9482 30.8072 30.1781 30.6183 31.3112 30.317C33.2357 29.8027 34.7464 28.288 35.2607 26.3594C35.5058 25.4514 35.6786 24.242 35.7991 22.7915C35.8875 21.7389 35.9438 20.6219 35.9759 19.5009C35.9879 19.1112 35.992 18.7456 35.996 18.4201C35.996 18.3036 36 18.2032 36 18.1148V17.8898ZM33.1071 18.0987C33.1071 18.1831 33.1071 18.2755 33.1031 18.384C33.0991 18.6974 33.0911 19.0429 33.083 19.4165C33.0549 20.4853 32.9987 21.554 32.9143 22.5465C32.8058 23.8402 32.6531 24.9009 32.4643 25.6121C32.2152 26.5402 31.4839 27.2755 30.5598 27.5206C29.7161 27.7456 27.5906 27.9264 24.7018 28.0349C23.2393 28.0911 21.6643 28.1273 20.0933 28.1474C19.5429 28.1554 19.0326 28.1594 18.5746 28.1594H17.4254L15.9067 28.1474C14.3357 28.1273 12.7647 28.0911 11.2982 28.0349C8.40938 27.9223 6.27991 27.7456 5.44018 27.5206C4.51607 27.2715 3.78482 26.5402 3.53571 25.6121C3.34687 24.9009 3.1942 23.8402 3.08571 22.5465C3.00134 21.554 2.94911 20.4853 2.91696 19.4165C2.90491 19.0429 2.90089 18.6933 2.89688 18.384C2.89688 18.2755 2.89286 18.179 2.89286 18.0987V17.9058C2.89286 17.8215 2.89286 17.729 2.89688 17.6206C2.90089 17.3072 2.90893 16.9616 2.91696 16.588C2.94509 15.5192 3.00134 14.4505 3.08571 13.4581C3.1942 12.1643 3.34687 11.1036 3.53571 10.3924C3.78482 9.46431 4.51607 8.72905 5.44018 8.48396C6.28393 8.25896 8.40938 8.07815 11.2982 7.96967C12.7607 7.91342 14.3357 7.87726 15.9067 7.85717C16.4571 7.84913 16.9674 7.84512 17.4254 7.84512H18.5746L20.0933 7.85717C21.6643 7.87726 23.2353 7.91342 24.7018 7.96967C27.5906 8.08217 29.7201 8.25896 30.5598 8.48396C31.4839 8.73306 32.2152 9.46431 32.4643 10.3924C32.6531 11.1036 32.8058 12.1643 32.9143 13.4581C32.9987 14.4505 33.0509 15.5192 33.083 16.588C33.0951 16.9616 33.0991 17.3112 33.1031 17.6206C33.1031 17.729 33.1071 17.8255 33.1071 17.9058V18.0987ZM14.4241 23.3862L23.7455 17.9621L14.4241 12.6183V23.3862Z" fill-opacity="0.85"/>
    </g>
    <defs>
        <clipPath id="clip0_806_8221">
            <rect width="36" height="36" fill="white"/>
        </clipPath>
    </defs>
</svg>
